<svg id="Capa_1" enable-background="new 0 0 512 512" height="512" viewBox="0 0 512 512" width="512" xmlns="http://www.w3.org/2000/svg" xmlns:xlink="http://www.w3.org/1999/xlink"><linearGradient id="SVGID_1_" gradientUnits="userSpaceOnUse" x1="256" x2="256" y1="512" y2="0"><stop offset="0" stop-color="#ffc2cc"/><stop offset="1" stop-color="#fff2f4"/></linearGradient><linearGradient id="SVGID_2_" gradientUnits="userSpaceOnUse" x1="255.999" x2="255.999" y1="407" y2="105.002"><stop offset="0" stop-color="#ffa68d"/><stop offset="1" stop-color="#fd3a84"/></linearGradient><g><g><circle cx="256" cy="256" fill="url(#SVGID_1_)" r="256"/></g><g><g><path d="m256 167.044c-29.44 0-53.389 23.919-53.389 53.323s23.949 53.324 53.389 53.324 53.389-23.919 53.389-53.324-23.949-53.323-53.389-53.323zm42.318 39.593c1.043 3.194.182 6.709-2.216 9.078l-13.512 13.279 3.111 18.677c.556 3.324-.817 6.666-3.545 8.644-2.66 1.94-6.269 2.285-9.333.703l-16.823-8.722-16.823 8.722c-3.007 1.536-6.621 1.285-9.333-.703-2.729-1.979-4.102-5.32-3.545-8.644l3.111-18.677-13.512-13.279c-2.398-2.369-3.259-5.884-2.216-9.078 1.043-3.203 3.806-5.546 7.143-6.049l18.743-2.812 8.472-16.933c3.024-6.023 12.895-6.023 15.919 0l8.472 16.933 18.743 2.812c3.338.503 6.101 2.847 7.144 6.049zm-39.737 3.212-2.581-5.156-2.581 5.155c-1.295 2.586-3.771 4.383-6.639 4.816l-5.709.859 4.119 4.044c2.059 2.031 3.007 4.938 2.529 7.794l-.947 5.685 5.127-2.656c2.521-1.31 5.602-1.352 8.203 0l5.127 2.656-.947-5.685c-.478-2.855.469-5.763 2.529-7.794l4.119-4.044-5.709-.859c-2.869-.433-5.346-2.229-6.64-4.815zm106.907 28.172c-8.064-10.979-8.02-24.475.235-35.384l4.101-5.685c3.289-4.582 1.551-11.021-3.606-13.322l-6.535-2.899c-12.374-5.277-19.126-16.95-17.605-30.533l.713-6.752c.614-5.702-4.257-10.358-9.776-9.764l-6.986.729c-12.817 1.536-25.052-5.485-30.5-17.523l-2.668-6.405c-2.18-5.245-8.697-7.166-13.417-3.801l-5.883 4.244c-10.358 7.889-24.522 7.785-35.384-.069l-5.518-4.096c-4.722-3.458-11.163-1.569-13.443 3.523l-2.946 6.622c-4.484 10.866-14.764 17.61-26.833 17.61-4.21 0-2.028-.074-10.28-.833-5.565-.631-10.382 4.128-9.776 9.764l.721 6.83c1.512 13.279-5.492 25.317-17.709 30.611l-6.413 2.665c-5.325 2.208-7.133 8.788-3.806 13.4l4.258 5.893c8.038 10.475 8.047 24.37.096 35.332l-4.093 5.511c-3.39 4.551-1.681 11.091 3.528 13.418l6.604 2.934c12.226 5.077 18.882 16.672 17.353 30.324l-.713 6.752c-.584 5.431 3.9 10.312 9.776 9.764l6.839-.72c10.81-1.146 21.063 3.055 27.746 12.506 2.292 2.726 4.219 8.348 5.57 11.413 2.221 5.323 8.818 7.109 13.408 3.793l5.891-4.235c10.341-7.889 24.539-7.785 35.393.069l5.518 4.088c4.528 3.379 11.097 1.696 13.434-3.524l2.98-6.708c4.03-10.086 14.108-17.523 26.972-17.523 4.038.033 3.503.234 10.106.842 5.839.513 10.339-4.263 9.784-9.747l-.73-7.03c-1.529-13.426 5.17-24.839 17.796-30.463l6.23-2.665c5.285-2.254 7.068-8.849 3.641-13.461zm-109.488 53.444c-39.251 0-71.185-31.895-71.185-71.098s31.934-71.098 71.185-71.098 71.185 31.896 71.185 71.098c0 39.203-31.934 71.098-71.185 71.098zm12.695 56.57c-3.805-2.416-6.879-6.492-12.852-6.492-5.287 0-7.396 3.207-12.904 6.752-8.717 6.305-21.205 7.223-31.43-.354v50.171c0 3.081 1.599 5.937 4.223 7.559 2.624 1.623 5.891 1.745 8.655.391l31.613-15.787 31.613 15.787c2.809 1.394 6.08 1.209 8.655-.391 2.624-1.623 4.223-4.478 4.223-7.559v-50.156c-10.202 7.563-22.9 6.717-31.796.079z" fill="url(#SVGID_2_)"/></g></g></g></svg>